<?xml version="1.0" standalone="no"?>
<!DOCTYPE svg PUBLIC "-//W3C//DTD SVG 20010904//EN"
 "http://www.w3.org/TR/2001/REC-SVG-20010904/DTD/svg10.dtd">
<svg version="1.0" xmlns="http://www.w3.org/2000/svg"
 width="129.000000pt" height="129.000000pt" viewBox="0 0 129.000000 129.000000"
 preserveAspectRatio="xMidYMid meet">
<metadata>
Created by potrace 1.11, written by Peter Selinger 2001-2013
</metadata>
<g transform="translate(0.000000,129.000000) scale(0.100000,-0.100000)"
fill="#000000" stroke="none">
<path d="M640 1280 c0 -23 -103 -330 -111 -330 -4 0 -72 40 -150 90 -78 49
-144 89 -146 87 -1 -2 26 -75 61 -163 35 -87 62 -162 59 -166 -2 -5 -16 -8
-31 -8 -15 0 -88 -9 -162 -20 -74 -11 -142 -20 -150 -20 -8 0 8 -12 35 -26 28
-15 94 -51 148 -80 53 -30 101 -54 107 -54 21 0 17 -19 -12 -51 -16 -19 -71
-78 -120 -132 -49 -53 -84 -97 -76 -97 15 0 294 57 321 66 18 6 19 -2 12 -178
-7 -201 -11 -191 48 -114 12 16 55 71 96 123 l73 94 42 -54 c22 -29 70 -92
106 -140 36 -47 68 -86 71 -87 3 0 5 35 3 77 -2 43 -5 123 -7 179 l-4 101 106
-23 c58 -13 135 -30 171 -38 35 -8 66 -14 68 -12 3 4 -112 137 -190 221 -21
22 -38 42 -38 45 0 3 70 41 155 85 85 44 151 83 147 86 -4 4 -81 17 -172 29
-91 12 -166 23 -168 25 -1 1 27 73 63 160 36 87 65 162 65 166 0 5 -68 -34
-150 -86 -97 -61 -152 -90 -155 -82 -3 6 -28 84 -55 172 -50 156 -60 182 -60
155z"/>
</g>
</svg>
